<svg id="레이어_1" data-name="레이어 1" xmlns="http://www.w3.org/2000/svg" viewBox="0 0 145.78 138.96"><title>대지 39_1</title><path d="M104.45,95,88.67,86.85a5.2,5.2,0,0,0-6.47,1.42l-5.76,7.45a57.36,57.36,0,0,1-14.89-10.9,55.74,55.74,0,0,1-11-15.16l7.36-5.76a5.2,5.2,0,0,0,1.42-6.47L51.17,41.74a5.26,5.26,0,0,0-7.53-2l-10,6.73a8,8,0,0,0-3.45,7,46.77,46.77,0,0,0,1.24,8.95c2.92,11.26,9.93,22.87,19.85,32.71S72.71,112,84,115a66.65,66.65,0,0,0,9,1.24,7.77,7.77,0,0,0,7.09-3.54l6.56-10.2A5.61,5.61,0,0,0,104.45,95Z"/><path d="M72.54,65.05a11.61,11.61,0,0,1,5.4,3.19,12.27,12.27,0,0,1,3.2,5.41,3.55,3.55,0,0,0,3.63,2.57h.35a3.61,3.61,0,0,0,3.37-4.52,19.32,19.32,0,0,0-5.14-8.78,19.86,19.86,0,0,0-8.77-5.14,3.6,3.6,0,0,0-4.52,3.37v.35A3.34,3.34,0,0,0,72.54,65.05Z"/><path d="M73.6,52.28A25.2,25.2,0,0,1,86.9,59.2a24.25,24.25,0,0,1,6.91,13.29,3.74,3.74,0,0,0,3.81,3h.27a3.57,3.57,0,0,0,3.37-4.26,33.41,33.41,0,0,0-9-17.46,31.82,31.82,0,0,0-17.47-9,3.66,3.66,0,0,0-4.25,3.37v.26A3.92,3.92,0,0,0,73.6,52.28Z"/><path d="M114.2,70.72A45.3,45.3,0,0,0,75.46,32a3.63,3.63,0,0,0-4.16,3.45v.36a3.68,3.68,0,0,0,3.19,3.81A37.36,37.36,0,0,1,95.94,50.33a38.15,38.15,0,0,1,10.72,21.46A3.69,3.69,0,0,0,110.48,75h.35A3.83,3.83,0,0,0,114.2,70.72Z"/></svg>