<svg id="레이어_1" data-name="레이어 1" xmlns="http://www.w3.org/2000/svg" viewBox="0 0 157.05 126.03"><title>대지 36</title><path d="M24.73,50.48a74.89,74.89,0,0,1,78.85-17.7l-2.34,2a74.22,74.22,0,0,0-63.48,8.69,105,105,0,0,0-10,8l6.35,6.35a63.34,63.34,0,0,1,60.14-16l-2.34,2.34c-20-4.68-41.43,1.33-58.14,17.7l-10-10.35ZM128.64,21.42l-87.2,87.2-4-4,86.87-87.2ZM117,38.79a82.63,82.63,0,0,1,16.37,12.7l-10,10.35a65.34,65.34,0,0,0-17-12.36l2.34-2.34a71.58,71.58,0,0,1,14.7,10.7l6-6.35a88.78,88.78,0,0,0-14.37-10.7ZM77.52,105.28l-7.35-7.35c5.68-5.35,11.36-5.35,16.71,0l-8.36,8.35Zm-3-7,4,4,4.35-4A7.6,7.6,0,0,0,74.51,98.26ZM53.13,78.88a38.79,38.79,0,0,1,12.36-8.35l-8.35,8.35-1,1h0l-2,2-2-2ZM86.54,69.2a39.55,39.55,0,0,1,18.71,10.69l-10.35,10c-7-6.68-15-9-22.72-6.35l3.67-3.67a25.2,25.2,0,0,1,19.05,6l6-6A33.11,33.11,0,0,0,84.2,71.53ZM38.76,64.85a56.41,56.41,0,0,1,48.45-16l-2.67,2.68a51.81,51.81,0,0,0-35.42,8.68,29.45,29.45,0,0,0-7,5.68l6,6a46.13,46.13,0,0,1,28.07-12l-3.35,3.68A41.71,41.71,0,0,0,48.12,75.88l-10.36-10Zm63.49-11.36a52.86,52.86,0,0,1,7.35,4.35h0l9.69,8-10.36,10a42.71,42.71,0,0,0-18-11l2.34-2.67a45.4,45.4,0,0,1,15.7,9.69l6.35-6a53,53,0,0,0-7-5.68h0a39.67,39.67,0,0,0-8.35-4.34Z"/></svg>