<svg id="레이어_1" data-name="레이어 1" xmlns="http://www.w3.org/2000/svg" viewBox="0 0 199.25 66.52"><title>대지 35</title><polygon points="108.27 42.56 108.27 13.82 100.62 13.82 100.62 49.69 125.2 49.69 125.2 42.56 108.27 42.56"/><path d="M190,48.79c-1.73-2.34-7.56-10.34-9.13-12.49l.31-.15c4.66-2.14,7.34-6,7.34-10.48,0-4.67-2.71-8.5-7.46-10.53a22.47,22.47,0,0,0-6.61-1.32H157.9l10.39,16.61h-7.48V49.69h7.65V37.56h4.19l9,12.13h9ZM174.33,21a16.53,16.53,0,0,1,3.65.7,4.82,4.82,0,0,1,2.9,4,4,4,0,0,1-2.69,4c-.41.14-.88.28-1.36.41h0L171.23,21Z"/><polygon points="32.16 31.76 50.83 13.82 39.8 13.82 30.29 22.76 21.01 13.82 9.88 13.82 28.36 31.76 9.88 49.69 21.01 49.69 30.29 40.76 39.8 49.69 50.83 49.69 32.16 31.76"/><rect x="85.08" y="13.82" width="7.61" height="35.87"/><polygon points="153.5 13.82 128.38 13.82 128.38 49.69 153.5 49.69 153.5 42.37 136.53 42.37 136.53 20.82 153.5 20.82 153.5 13.82"/><polygon points="145.77 36.12 150.45 31.76 145.77 27.4 141.1 31.76 145.77 36.12"/><polygon points="52.96 13.82 52.96 49.69 60.62 49.69 60.62 20.96 80.42 20.96 80.42 13.82 52.96 13.82"/><polygon points="65 31.76 69.68 36.12 74.36 31.76 69.68 27.4 65 31.76"/></svg>